<svg width="483" height="949" viewBox="0 0 483 949" fill="none" xmlns="http://www.w3.org/2000/svg">
<path d="M230.15 455.401C230.15 455.401 234.08 460.75 240.003 461.42C245.927 462.09 249.782 453.973 249.782 453.973L250.15 948.973H230.15V455.401Z" fill="#BCBCBC"/>
<path d="M230.15 451.973C230.15 451.973 234.63 459.133 236.399 460.335C238.169 461.537 240.011 462.004 240.011 462.004L240.15 948.973H230.15V451.973Z" fill="url(#paint0_linear_77_188)"/>
<rect width="334.077" height="334.077" rx="10" transform="matrix(0.721468 -0.692448 0.721468 0.692448 0 231.331)" fill="#FF9D00"/>
<path d="M414.473 237.043C414.794 236.625 414.93 236.102 414.849 235.588L403.311 162.204C403.019 160.345 405.359 159.197 406.758 160.513L480.58 229.947C481.39 230.709 481.397 231.96 480.594 232.73L260.264 444.198C258.479 445.911 255.681 443.6 257.179 441.65L414.473 237.043Z" fill="#F4B24C"/>
<path d="M81.3898 225.34C80.9435 224.677 80.9561 223.821 81.4218 223.17L228.499 17.5158C229.903 15.5522 227.128 13.3384 225.374 15.0226L1.44286 229.946C0.64595 230.711 0.645952 231.951 1.44286 232.716L227.472 449.654C229.202 451.314 231.956 449.179 230.63 447.207L81.3898 225.34Z" fill="#763A15" fill-opacity="0.4"/>
<path d="M102.556 227.598C102.11 226.935 102.122 226.079 102.588 225.428L228.564 49.2798C229.968 47.3162 227.193 45.1024 225.438 46.7866L33.2213 231.272C32.4244 232.037 32.4244 233.277 33.2213 234.042L227.537 420.541C229.267 422.202 232.021 420.067 230.694 418.094L102.556 227.598Z" fill="#763A15"/>
<g filter="url(#filter0_i_77_188)">
<rect width="290.12" height="290.12" rx="10" transform="matrix(0.721468 -0.692448 0.721468 0.692448 31.6494 232.21)" fill="#FFA81B"/>
</g>
<rect x="7.21468" width="280.12" height="280.12" rx="5" transform="matrix(0.721468 -0.692448 0.721468 0.692448 33.6589 237.206)" stroke="#FFF3D0" stroke-width="10"/>
<path d="M382.03 229.796C382.346 229.386 382.482 228.875 382.411 228.37L375.391 178.481C375.13 176.621 377.482 175.507 378.861 176.838L434.566 230.615C435.359 231.38 435.357 232.617 434.562 233.38L242.305 417.965C240.52 419.679 237.72 417.367 239.22 415.417L382.03 229.796Z" fill="#FFBF5D"/>
<path fill-rule="evenodd" clip-rule="evenodd" d="M209.215 162.813L213.595 156H245.802L249.208 162.813H289.157V177.678H169V162.813H209.215ZM250.493 256.073C265.005 241.561 288.535 241.561 303.047 256.073C317.56 270.586 317.56 294.116 303.047 308.628C288.535 323.141 265.005 323.141 250.493 308.628C235.98 294.116 235.98 270.586 250.493 256.073ZM257.605 266.071C257.604 265.177 257.934 264.399 258.595 263.738C259.256 263.076 260.035 262.746 260.931 262.746C261.824 262.746 262.601 263.076 263.263 263.738L289.344 289.819V267.064C289.344 266.13 289.664 265.343 290.305 264.702C290.948 264.059 291.736 263.738 292.669 263.738C293.603 263.738 294.381 264.049 295.003 264.672C295.625 265.294 295.937 266.072 295.937 267.005V297.813C295.953 297.988 295.95 298.16 295.926 298.329C295.909 298.453 295.882 298.575 295.845 298.695C295.808 298.811 295.762 298.925 295.706 299.038C295.51 299.427 295.256 299.777 294.945 300.088C294.634 300.399 294.294 300.643 293.925 300.819C293.701 300.924 293.459 300.998 293.2 301.039C293.031 301.066 292.854 301.08 292.67 301.08L261.863 301.08C260.929 301.08 260.151 300.769 259.529 300.146C258.906 299.524 258.595 298.746 258.595 297.812C258.595 296.879 258.916 296.091 259.557 295.45C260.199 294.808 260.987 294.486 261.921 294.486L284.676 294.487L258.595 268.405C257.934 267.744 257.604 266.966 257.605 266.071ZM280.486 186.968H177.671V251.416V251.473V292.171C177.671 297.693 182.148 302.171 187.671 302.171H230.105C227.453 296.101 225.982 289.398 225.982 282.351C225.982 268.49 231.673 255.958 240.847 246.966V199.356H260.667V235.07C265.359 233.596 270.353 232.801 275.531 232.801C277.204 232.801 278.857 232.884 280.486 233.046V186.968ZM218.549 199.356H198.729V287.306H218.549V199.356Z" fill="#FFF3D0"/>
<defs>
<filter id="filter0_i_77_188" x="35.8755" y="35.3737" width="410.171" height="397.673" filterUnits="userSpaceOnUse" color-interpolation-filters="sRGB">
<feFlood flood-opacity="0" result="BackgroundImageFix"/>
<feBlend mode="normal" in="SourceGraphic" in2="BackgroundImageFix" result="shape"/>
<feColorMatrix in="SourceAlpha" type="matrix" values="0 0 0 0 0 0 0 0 0 0 0 0 0 0 0 0 0 0 127 0" result="hardAlpha"/>
<feOffset dy="4"/>
<feGaussianBlur stdDeviation="2"/>
<feComposite in2="hardAlpha" operator="arithmetic" k2="-1" k3="1"/>
<feColorMatrix type="matrix" values="0 0 0 0 0 0 0 0 0 0 0 0 0 0 0 0 0 0 0.25 0"/>
<feBlend mode="normal" in2="shape" result="effect1_innerShadow_77_188"/>
</filter>
<linearGradient id="paint0_linear_77_188" x1="257.454" y1="674.953" x2="227.7" y2="674.942" gradientUnits="userSpaceOnUse">
<stop offset="0.11" stop-color="#7B7B7B" stop-opacity="0.57"/>
<stop offset="0.55" stop-color="#7B7B7B" stop-opacity="0.57"/>
<stop offset="1" stop-color="#E1E1E1"/>
</linearGradient>
</defs>
</svg>
