<svg width="483" height="949" viewBox="0 0 483 949" fill="none" xmlns="http://www.w3.org/2000/svg">
<path d="M231 455.428C231 455.428 234.929 460.777 240.853 461.447C246.777 462.118 250.631 454 250.631 454L251 949H231V455.428Z" fill="#BCBCBC"/>
<path d="M231 452C231 452 235.48 459.16 237.249 460.362C239.018 461.564 240.861 462.032 240.861 462.032L241 949H231V452Z" fill="url(#paint0_linear_53_72)"/>
<rect width="334.077" height="334.077" rx="10" transform="matrix(0.721468 -0.692448 0.721468 0.692448 0.849609 231.358)" fill="#FDAA2F" fill-opacity="0.85098"/>
<path d="M415.323 237.07C415.644 236.652 415.779 236.129 415.698 235.615L404.161 162.231C403.869 160.372 406.208 159.224 407.607 160.54L481.429 229.974C482.24 230.736 482.247 231.987 481.444 232.757L261.114 444.225C259.329 445.938 256.53 443.627 258.029 441.677L415.323 237.07Z" fill="#FFDEAB" fill-opacity="0.4"/>
<path d="M391.375 231.72C391.69 231.31 391.826 230.799 391.755 230.295L384.715 180.266C384.456 178.42 386.774 177.301 388.163 178.602L444.24 231.145C445.054 231.907 445.061 233.16 444.258 233.931L255.608 414.993C253.823 416.706 251.025 414.395 252.523 412.446L391.375 231.72Z" fill="#FFDEAB" fill-opacity="0.85098"/>
<path d="M82.2394 225.367C81.7931 224.704 81.8057 223.848 82.2714 223.197L229.349 17.5431C230.753 15.5794 227.978 13.3656 226.223 15.0498L2.29246 229.974C1.49556 230.738 1.49556 231.978 2.29246 232.743L228.322 449.681C230.052 451.341 232.806 449.207 231.479 447.234L82.2394 225.367Z" fill="#763A15" fill-opacity="0.4"/>
<path d="M103.406 227.626C102.959 226.962 102.972 226.106 103.438 225.455L229.413 49.307C230.818 47.3434 228.043 45.1297 226.288 46.8138L34.0709 231.299C33.274 232.064 33.274 233.304 34.0709 234.069L228.386 420.568C230.116 422.229 232.871 420.094 231.544 418.121L103.406 227.626Z" fill="#763A15"/>
<g filter="url(#filter0_i_53_72)">
<rect width="290.12" height="290.12" rx="10" transform="matrix(0.721468 -0.692448 0.721468 0.692448 32.499 232.238)" fill="#F9B347" fill-opacity="0.7"/>
</g>
<rect x="7.21468" width="280.12" height="280.12" rx="5" transform="matrix(0.721468 -0.692448 0.721468 0.692448 34.5085 237.233)" stroke="#FFF3D0" stroke-width="10"/>
<path d="M119.286 214.078C119.286 215.302 118.888 216.162 118.094 216.656C117.3 217.151 116.343 217.399 115.223 217.399C114.116 217.399 113.166 217.151 112.372 216.656C111.577 216.162 111.18 215.302 111.18 214.078C111.18 212.906 111.577 212.067 112.372 211.559C113.166 211.038 114.116 210.778 115.223 210.778C116.343 210.778 117.3 211.038 118.094 211.559C118.888 212.067 119.286 212.906 119.286 214.078ZM111.454 239.156L112.918 220.465H117.411L118.875 239.156H111.454ZM143.25 227.887V232.555H125.067V204.664H143.25V209.274H131.297V215.739H142.489V220.348H131.297V227.887H143.25ZM172.645 204.664V232.555H164.598L154.461 211.207H154.305C154.37 212.119 154.435 213.258 154.5 214.625C154.579 215.992 154.618 217.288 154.618 218.512V232.555H149.09V204.664H157.137L167.215 225.817H167.332C167.306 225.296 167.274 224.625 167.235 223.805C167.196 222.985 167.163 222.125 167.137 221.227C167.111 220.328 167.098 219.508 167.098 218.766V204.664H172.645ZM193.934 208.961C191.187 208.961 189.025 209.821 187.45 211.539C185.874 213.258 185.086 215.634 185.086 218.668C185.086 221.689 185.835 224.046 187.332 225.739C188.843 227.418 191.115 228.258 194.149 228.258C195.542 228.258 196.877 228.121 198.153 227.848C199.442 227.561 200.718 227.216 201.981 226.813V231.578C200.692 232.047 199.364 232.392 197.997 232.614C196.629 232.835 195.093 232.946 193.387 232.946C190.028 232.946 187.254 232.353 185.067 231.168C182.892 229.97 181.271 228.297 180.204 226.149C179.149 224 178.622 221.494 178.622 218.629C178.622 215.817 179.214 213.336 180.399 211.188C181.584 209.026 183.322 207.334 185.614 206.11C187.905 204.886 190.698 204.274 193.993 204.274C195.581 204.274 197.176 204.423 198.778 204.723C200.392 205.009 201.896 205.459 203.289 206.071L201.2 210.582C200.132 210.14 198.999 209.762 197.801 209.449C196.616 209.124 195.327 208.961 193.934 208.961ZM230.789 204.664V222.047C230.789 224.196 230.366 226.09 229.52 227.731C228.687 229.358 227.424 230.634 225.731 231.559C224.051 232.483 221.935 232.946 219.383 232.946C215.737 232.946 212.957 231.982 211.043 230.055C209.129 228.128 208.172 225.478 208.172 222.106V204.664H214.422V221.852C214.422 226.084 216.122 228.199 219.52 228.199C221.304 228.199 222.593 227.646 223.387 226.539C224.181 225.433 224.579 223.857 224.579 221.813V204.664H230.789ZM255.985 227.887V232.555H237.801V204.664H255.985V209.274H244.032V215.739H255.223V220.348H244.032V227.887H255.985ZM285.379 204.664V232.555H277.332L267.196 211.207H267.039C267.105 212.119 267.17 213.258 267.235 214.625C267.313 215.992 267.352 217.288 267.352 218.512V232.555H261.825V204.664H269.872L279.95 225.817H280.067C280.041 225.296 280.008 224.625 279.969 223.805C279.93 222.985 279.898 222.125 279.872 221.227C279.845 220.328 279.832 219.508 279.832 218.766V204.664H285.379ZM305.907 209.352V232.555H299.676V209.352H290.145V204.664H315.399V209.352H305.907ZM320.184 204.664H329.618C337.664 204.664 341.688 207.36 341.688 212.75C341.688 214.703 341.128 216.272 340.008 217.457C338.901 218.642 337.541 219.567 335.926 220.231L344.754 232.555H337.625L330.555 221.735H326.414V232.555H320.184V204.664ZM329.461 209.078H326.414V217.36H329.52C331.421 217.36 332.866 217.015 333.856 216.324C334.859 215.634 335.36 214.528 335.36 213.004C335.36 211.663 334.885 210.673 333.934 210.035C332.984 209.397 331.493 209.078 329.461 209.078ZM373.661 232.555H366.961L364.442 225.68H353.426L350.907 232.555H344.207L355.164 204.547H362.664L373.661 232.555ZM362.977 220.973L360.653 214.547C360.549 214.183 360.379 213.629 360.145 212.887C359.924 212.145 359.696 211.377 359.461 210.582C359.227 209.788 359.051 209.15 358.934 208.668C358.804 209.254 358.635 209.918 358.426 210.66C358.231 211.403 358.029 212.119 357.821 212.809C357.625 213.499 357.456 214.078 357.313 214.547L354.969 220.973H362.977ZM159.754 256.352V279.555H153.524V256.352H143.993V251.664H169.247V256.352H159.754ZM196.473 251.664V269.047C196.473 271.196 196.05 273.09 195.204 274.731C194.37 276.358 193.107 277.634 191.414 278.559C189.735 279.483 187.619 279.946 185.067 279.946C181.421 279.946 178.641 278.982 176.727 277.055C174.813 275.128 173.856 272.478 173.856 269.106V251.664H180.106V268.852C180.106 273.084 181.805 275.199 185.204 275.199C186.987 275.199 188.276 274.646 189.071 273.539C189.865 272.433 190.262 270.857 190.262 268.813V251.664H196.473ZM216.688 251.664H226.122C234.168 251.664 238.192 254.36 238.192 259.75C238.192 261.703 237.632 263.272 236.512 264.457C235.405 265.642 234.045 266.567 232.43 267.231L241.258 279.555H234.129L227.059 268.735H222.918V279.555H216.688V251.664ZM225.965 256.078H222.918V264.36H226.024C227.925 264.36 229.37 264.015 230.36 263.324C231.362 262.634 231.864 261.528 231.864 260.004C231.864 258.663 231.388 257.673 230.438 257.035C229.487 256.397 227.997 256.078 225.965 256.078ZM266.747 251.664V269.047C266.747 271.196 266.323 273.09 265.477 274.731C264.644 276.358 263.381 277.634 261.688 278.559C260.008 279.483 257.892 279.946 255.34 279.946C251.694 279.946 248.914 278.982 247 277.055C245.086 275.128 244.129 272.478 244.129 269.106V251.664H250.379V268.852C250.379 273.084 252.079 275.199 255.477 275.199C257.261 275.199 258.55 274.646 259.344 273.539C260.138 272.433 260.536 270.857 260.536 268.813V251.664H266.747ZM287.098 256.352V279.555H280.868V256.352H271.336V251.664H296.59V256.352H287.098ZM327.235 279.555H320.536L318.016 272.68H307L304.481 279.555H297.782L308.739 251.547H316.239L327.235 279.555ZM316.551 267.973L314.227 261.547C314.123 261.183 313.954 260.629 313.719 259.887C313.498 259.145 313.27 258.377 313.036 257.582C312.801 256.788 312.625 256.15 312.508 255.668C312.378 256.254 312.209 256.918 312 257.66C311.805 258.403 311.603 259.119 311.395 259.809C311.2 260.499 311.03 261.078 310.887 261.547L308.543 267.973H316.551ZM337.274 251.664L335.809 270.375H331.356L329.891 251.664H337.274ZM329.481 276.742C329.481 275.518 329.872 274.659 330.653 274.164C331.447 273.67 332.411 273.422 333.543 273.422C334.624 273.422 335.568 273.67 336.375 274.164C337.196 274.659 337.606 275.518 337.606 276.742C337.606 277.914 337.196 278.761 336.375 279.281C335.568 279.789 334.624 280.043 333.543 280.043C332.411 280.043 331.447 279.789 330.653 279.281C329.872 278.761 329.481 277.914 329.481 276.742Z" fill="#FFF3D0"/>
<defs>
<filter id="filter0_i_53_72" x="36.7251" y="35.4009" width="410.171" height="397.673" filterUnits="userSpaceOnUse" color-interpolation-filters="sRGB">
<feFlood flood-opacity="0" result="BackgroundImageFix"/>
<feBlend mode="normal" in="SourceGraphic" in2="BackgroundImageFix" result="shape"/>
<feColorMatrix in="SourceAlpha" type="matrix" values="0 0 0 0 0 0 0 0 0 0 0 0 0 0 0 0 0 0 127 0" result="hardAlpha"/>
<feOffset dy="4"/>
<feGaussianBlur stdDeviation="2"/>
<feComposite in2="hardAlpha" operator="arithmetic" k2="-1" k3="1"/>
<feColorMatrix type="matrix" values="0 0 0 0 0 0 0 0 0 0 0 0 0 0 0 0 0 0 0.25 0"/>
<feBlend mode="normal" in2="shape" result="effect1_innerShadow_53_72"/>
</filter>
<linearGradient id="paint0_linear_53_72" x1="258.304" y1="674.98" x2="228.549" y2="674.969" gradientUnits="userSpaceOnUse">
<stop offset="0.11" stop-color="#7B7B7B" stop-opacity="0.57"/>
<stop offset="0.55" stop-color="#7B7B7B" stop-opacity="0.57"/>
<stop offset="1" stop-color="#E1E1E1"/>
</linearGradient>
</defs>
</svg>
