<svg width="483" height="949" viewBox="0 0 483 949" fill="none" xmlns="http://www.w3.org/2000/svg">
<path d="M230.15 455.401C230.15 455.401 234.08 460.75 240.003 461.42C245.927 462.09 249.782 453.973 249.782 453.973L250.15 948.973H230.15V455.401Z" fill="#BCBCBC"/>
<path d="M230.15 451.973C230.15 451.973 234.63 459.133 236.399 460.335C238.169 461.537 240.011 462.004 240.011 462.004L240.15 948.973H230.15V451.973Z" fill="url(#paint0_linear_77_97)"/>
<rect width="334.077" height="334.077" rx="10" transform="matrix(0.721468 -0.692448 0.721468 0.692448 0 231.331)" fill="#FF9D00"/>
<path d="M414.473 237.043C414.794 236.625 414.93 236.102 414.849 235.588L403.311 162.204C403.019 160.345 405.359 159.197 406.758 160.513L480.58 229.947C481.39 230.709 481.397 231.96 480.594 232.73L260.264 444.198C258.479 445.911 255.681 443.6 257.179 441.65L414.473 237.043Z" fill="#F4B24C"/>
<path d="M81.3898 225.34C80.9435 224.677 80.9561 223.821 81.4218 223.17L228.499 17.5158C229.903 15.5522 227.128 13.3384 225.374 15.0226L1.44286 229.946C0.64595 230.711 0.645952 231.951 1.44286 232.716L227.472 449.654C229.202 451.314 231.956 449.179 230.63 447.207L81.3898 225.34Z" fill="#763A15" fill-opacity="0.4"/>
<path d="M102.556 227.598C102.11 226.935 102.122 226.079 102.588 225.428L228.564 49.2798C229.968 47.3162 227.193 45.1024 225.438 46.7866L33.2213 231.272C32.4244 232.037 32.4244 233.277 33.2213 234.042L227.537 420.541C229.267 422.202 232.021 420.067 230.694 418.094L102.556 227.598Z" fill="#763A15"/>
<g filter="url(#filter0_i_77_97)">
<rect width="290.12" height="290.12" rx="10" transform="matrix(0.721468 -0.692448 0.721468 0.692448 31.6494 232.21)" fill="#FFA81B"/>
</g>
<rect x="7.21468" width="280.12" height="280.12" rx="5" transform="matrix(0.721468 -0.692448 0.721468 0.692448 33.6589 237.206)" stroke="#FFF3D0" stroke-width="10"/>
<path d="M382.03 229.796C382.346 229.386 382.482 228.875 382.411 228.37L375.391 178.481C375.13 176.621 377.482 175.507 378.861 176.838L434.566 230.615C435.359 231.38 435.357 232.617 434.562 233.38L242.305 417.965C240.52 419.679 237.72 417.367 239.22 415.417L382.03 229.796Z" fill="#FFBF5D"/>
<path d="M118.436 214.051C118.436 215.275 118.039 216.134 117.245 216.629C116.45 217.124 115.493 217.371 114.373 217.371C113.267 217.371 112.316 217.124 111.522 216.629C110.728 216.134 110.331 215.275 110.331 214.051C110.331 212.879 110.728 212.039 111.522 211.532C112.316 211.011 113.267 210.75 114.373 210.75C115.493 210.75 116.45 211.011 117.245 211.532C118.039 212.039 118.436 212.879 118.436 214.051ZM110.604 239.129L112.069 220.438H116.561L118.026 239.129H110.604ZM142.401 227.86V232.528H124.217V204.637H142.401V209.246H130.448V215.711H141.639V220.321H130.448V227.86H142.401ZM171.795 204.637V232.528H163.748L153.612 211.18H153.456C153.521 212.092 153.586 213.231 153.651 214.598C153.729 215.965 153.768 217.261 153.768 218.485V232.528H148.241V204.637H156.288L166.366 225.789H166.483C166.457 225.269 166.424 224.598 166.385 223.778C166.346 222.957 166.314 222.098 166.288 221.2C166.261 220.301 166.248 219.481 166.248 218.739V204.637H171.795ZM193.084 208.934C190.337 208.934 188.176 209.793 186.6 211.512C185.025 213.231 184.237 215.607 184.237 218.641C184.237 221.662 184.985 224.019 186.483 225.711C187.993 227.391 190.265 228.231 193.299 228.231C194.692 228.231 196.027 228.094 197.303 227.821C198.592 227.534 199.868 227.189 201.131 226.786V231.551C199.842 232.02 198.514 232.365 197.147 232.586C195.78 232.808 194.243 232.918 192.538 232.918C189.178 232.918 186.405 232.326 184.217 231.141C182.043 229.943 180.422 228.27 179.354 226.121C178.299 223.973 177.772 221.467 177.772 218.602C177.772 215.789 178.364 213.309 179.549 211.161C180.734 208.999 182.472 207.306 184.764 206.082C187.056 204.858 189.849 204.246 193.143 204.246C194.732 204.246 196.327 204.396 197.928 204.696C199.543 204.982 201.047 205.431 202.44 206.043L200.35 210.555C199.282 210.112 198.15 209.735 196.952 209.422C195.767 209.097 194.478 208.934 193.084 208.934ZM229.94 204.637V222.02C229.94 224.168 229.517 226.063 228.67 227.703C227.837 229.331 226.574 230.607 224.881 231.532C223.202 232.456 221.086 232.918 218.534 232.918C214.888 232.918 212.108 231.955 210.194 230.028C208.28 228.101 207.323 225.451 207.323 222.078V204.637H213.573V221.825C213.573 226.056 215.272 228.172 218.67 228.172C220.454 228.172 221.743 227.619 222.538 226.512C223.332 225.405 223.729 223.83 223.729 221.786V204.637H229.94ZM255.135 227.86V232.528H236.952V204.637H255.135V209.246H243.182V215.711H254.373V220.321H243.182V227.86H255.135ZM284.53 204.637V232.528H276.483L266.346 211.18H266.19C266.255 212.092 266.32 213.231 266.385 214.598C266.463 215.965 266.502 217.261 266.502 218.485V232.528H260.975V204.637H269.022L279.1 225.789H279.217C279.191 225.269 279.159 224.598 279.12 223.778C279.081 222.957 279.048 222.098 279.022 221.2C278.996 220.301 278.983 219.481 278.983 218.739V204.637H284.53ZM305.057 209.325V232.528H298.827V209.325H289.295V204.637H314.549V209.325H305.057ZM319.334 204.637H328.768C336.815 204.637 340.838 207.332 340.838 212.723C340.838 214.676 340.278 216.245 339.159 217.43C338.052 218.615 336.691 219.539 335.077 220.203L343.905 232.528H336.776L329.706 221.707H325.565V232.528H319.334V204.637ZM328.612 209.051H325.565V217.332H328.67C330.571 217.332 332.017 216.987 333.006 216.297C334.009 215.607 334.51 214.5 334.51 212.977C334.51 211.636 334.035 210.646 333.084 210.008C332.134 209.37 330.643 209.051 328.612 209.051ZM372.811 232.528H366.112L363.592 225.653H352.577L350.057 232.528H343.358L354.315 204.52H361.815L372.811 232.528ZM362.127 220.946L359.803 214.52C359.699 214.155 359.53 213.602 359.295 212.86C359.074 212.118 358.846 211.349 358.612 210.555C358.377 209.761 358.202 209.123 358.084 208.641C357.954 209.227 357.785 209.891 357.577 210.633C357.381 211.375 357.179 212.092 356.971 212.782C356.776 213.472 356.607 214.051 356.463 214.52L354.12 220.946H362.127ZM158.905 256.325V279.528H152.674V256.325H143.143V251.637H168.397V256.325H158.905ZM195.623 251.637V269.02C195.623 271.168 195.2 273.063 194.354 274.703C193.521 276.331 192.258 277.607 190.565 278.532C188.885 279.456 186.769 279.918 184.217 279.918C180.571 279.918 177.791 278.955 175.877 277.028C173.963 275.101 173.006 272.451 173.006 269.078V251.637H179.256V268.825C179.256 273.056 180.956 275.172 184.354 275.172C186.138 275.172 187.427 274.619 188.221 273.512C189.015 272.405 189.413 270.83 189.413 268.786V251.637H195.623ZM215.838 251.637H225.272C233.319 251.637 237.342 254.332 237.342 259.723C237.342 261.676 236.782 263.245 235.663 264.43C234.556 265.615 233.195 266.539 231.581 267.203L240.409 279.528H233.28L226.209 268.707H222.069V279.528H215.838V251.637ZM225.116 256.051H222.069V264.332H225.174C227.075 264.332 228.521 263.987 229.51 263.297C230.513 262.607 231.014 261.5 231.014 259.977C231.014 258.636 230.539 257.646 229.588 257.008C228.638 256.37 227.147 256.051 225.116 256.051ZM265.897 251.637V269.02C265.897 271.168 265.474 273.063 264.627 274.703C263.794 276.331 262.531 277.607 260.838 278.532C259.159 279.456 257.043 279.918 254.491 279.918C250.845 279.918 248.065 278.955 246.151 277.028C244.237 275.101 243.28 272.451 243.28 269.078V251.637H249.53V268.825C249.53 273.056 251.229 275.172 254.627 275.172C256.411 275.172 257.7 274.619 258.495 273.512C259.289 272.405 259.686 270.83 259.686 268.786V251.637H265.897ZM286.248 256.325V279.528H280.018V256.325H270.487V251.637H295.741V256.325H286.248ZM326.385 279.528H319.686L317.166 272.653H306.151L303.631 279.528H296.932L307.889 251.52H315.389L326.385 279.528ZM315.702 267.946L313.377 261.52C313.273 261.155 313.104 260.602 312.87 259.86C312.648 259.118 312.42 258.349 312.186 257.555C311.952 256.761 311.776 256.123 311.659 255.641C311.528 256.227 311.359 256.891 311.151 257.633C310.956 258.375 310.754 259.092 310.545 259.782C310.35 260.472 310.181 261.051 310.038 261.52L307.694 267.946H315.702ZM336.424 251.637L334.959 270.348H330.506L329.041 251.637H336.424ZM328.631 276.715C328.631 275.491 329.022 274.632 329.803 274.137C330.597 273.642 331.561 273.395 332.694 273.395C333.775 273.395 334.719 273.642 335.526 274.137C336.346 274.632 336.756 275.491 336.756 276.715C336.756 277.887 336.346 278.733 335.526 279.254C334.719 279.762 333.775 280.016 332.694 280.016C331.561 280.016 330.597 279.762 329.803 279.254C329.022 278.733 328.631 277.887 328.631 276.715Z" fill="#FFF3D0"/>
<defs>
<filter id="filter0_i_77_97" x="35.8755" y="35.3737" width="410.171" height="397.673" filterUnits="userSpaceOnUse" color-interpolation-filters="sRGB">
<feFlood flood-opacity="0" result="BackgroundImageFix"/>
<feBlend mode="normal" in="SourceGraphic" in2="BackgroundImageFix" result="shape"/>
<feColorMatrix in="SourceAlpha" type="matrix" values="0 0 0 0 0 0 0 0 0 0 0 0 0 0 0 0 0 0 127 0" result="hardAlpha"/>
<feOffset dy="4"/>
<feGaussianBlur stdDeviation="2"/>
<feComposite in2="hardAlpha" operator="arithmetic" k2="-1" k3="1"/>
<feColorMatrix type="matrix" values="0 0 0 0 0 0 0 0 0 0 0 0 0 0 0 0 0 0 0.25 0"/>
<feBlend mode="normal" in2="shape" result="effect1_innerShadow_77_97"/>
</filter>
<linearGradient id="paint0_linear_77_97" x1="257.454" y1="674.953" x2="227.7" y2="674.942" gradientUnits="userSpaceOnUse">
<stop offset="0.11" stop-color="#7B7B7B" stop-opacity="0.57"/>
<stop offset="0.55" stop-color="#7B7B7B" stop-opacity="0.57"/>
<stop offset="1" stop-color="#E1E1E1"/>
</linearGradient>
</defs>
</svg>
