<svg width="321" height="127" viewBox="0 0 321 127" fill="none" xmlns="http://www.w3.org/2000/svg">
<rect x="52.4143" y="87.3027" width="256.99" height="35.6589" rx="17.8294" fill="#363636"/>
<g filter="url(#filter0_d_63_96)">
<rect x="181.524" y="97.1397" width="38.1181" height="20.9035" rx="10.4517" fill="#686868"/>
</g>
<g filter="url(#filter1_d_63_96)">
<rect x="192.591" y="98.3693" width="17.2146" height="18.4442" rx="8.60731" fill="#A2A2A2"/>
</g>
<g filter="url(#filter2_d_63_96)">
<path d="M40.1181 7.99251L2 58.4068V118.043H52.4143L62.866 94.0656L222.716 95.9101V0H40.1181V7.99251Z" fill="#F6A421"/>
</g>
<g filter="url(#filter3_i_63_96)">
<path fill-rule="evenodd" clip-rule="evenodd" d="M89.015 15.3702L91.7619 9.11721V6.14807H81.1717L75.5212 15.3702H89.015ZM74.3875 6.14807L68.577 15.3702L57.3435 33.1996H29.162L46.2663 11.6813V6.14807H74.3875ZM24.2751 39.3477L8.14819 59.6364V110.865L22.4807 88.5324L53.4698 39.3477H24.2751ZM16.6357 111.895H46.4726L56.8744 88.5324H30.6935L16.6357 111.895ZM64.6098 88.5324H91.7619V26.1176L64.6098 88.5324ZM100.369 88.5324H125.576V6.14807H100.449L100.369 6.33197V88.5324ZM132.954 6.14807V88.5324H161.235V6.14807H132.954ZM169.228 6.14807V88.5324H194.435V6.14807H169.228ZM201.813 6.14807V88.5324H217.183V6.14807H201.813ZM64.7105 34.4292L72.703 20.9035H86.2288L80.6955 34.4292H64.7105ZM60.4069 41.8069L50.5699 57.7919L69.629 58.4068L77.0067 41.8069H60.4069ZM45.0367 65.7845L35.1998 82.3843H59.1773L66.555 65.7845H45.0367Z" fill="#F6A421"/>
</g>
<g filter="url(#filter4_d_63_96)">
<path d="M289.924 15.985H232.479C230.822 15.985 229.479 17.3282 229.479 18.985V81.7757C229.479 83.4325 230.822 84.7757 232.479 84.7757H255.112C276.557 84.7757 284.434 96.6511 285.5 108.899C285.644 110.549 286.972 111.895 288.628 111.895H311.937C313.594 111.895 314.937 110.552 314.937 108.895V53.7436C314.937 53.1752 314.776 52.6186 314.472 52.1384L292.458 17.3799C291.908 16.5114 290.952 15.985 289.924 15.985Z" fill="#BCBCBC"/>
</g>
<path d="M310.168 62.1756C310.686 60.1042 313.404 59.5864 314.699 59.5864V66.7067C312.973 66.0594 309.65 64.2469 310.168 62.1756Z" fill="#FFF3D0"/>
<g filter="url(#filter5_d_63_96)">
<path d="M285.89 20.9035H256.453C254.796 20.9035 253.453 22.2466 253.453 23.9035L253.453 83.1664C253.453 84.8233 254.804 86.1563 256.458 86.2531C274.575 87.3133 284.986 97.9317 286.592 108.906C286.832 110.546 288.154 111.895 289.811 111.895H306.404C308.061 111.895 309.404 110.552 309.404 108.895V56.7599C309.404 56.1981 309.246 55.6476 308.949 55.1711L288.435 22.3147C287.887 21.4368 286.925 20.9035 285.89 20.9035Z" fill="#BCBCBC"/>
</g>
<path d="M262.064 83.0079H227.681C225.951 83.0079 224.561 84.4101 224.561 86.1399C224.561 87.8697 225.963 89.272 227.693 89.272H260.834C274.69 89.272 282.487 102.035 284.687 111.265C285.327 113.951 287.577 116.208 290.339 116.208H317.089C318.957 116.208 320.471 114.694 320.471 112.826C320.471 110.959 318.957 109.445 317.089 109.445L294.115 109.445C291.354 109.445 289.119 107.176 288.391 104.513C285.758 94.8919 276.113 83.0079 262.064 83.0079Z" fill="#7B7B7B"/>
<g filter="url(#filter6_i_63_96)">
<path d="M256.53 51.7179V30.0516C256.53 28.3947 257.874 27.0516 259.53 27.0516H284.989C286.026 27.0516 286.989 27.5866 287.537 28.4667L301.018 50.133C302.261 52.1314 300.824 54.7179 298.471 54.7179H259.53C257.874 54.7179 256.53 53.3748 256.53 51.7179Z" fill="#D9D9D9"/>
<path d="M238.012 27.0516H245.538C247.195 27.0516 248.538 28.3947 248.538 30.0516V51.7179C248.538 53.3748 247.195 54.7179 245.538 54.7179H238.012C236.355 54.7179 235.012 53.3748 235.012 51.7179V30.0516C235.012 28.3947 236.355 27.0516 238.012 27.0516Z" fill="#D9D9D9"/>
</g>
<g filter="url(#filter7_d_63_96)">
<path fill-rule="evenodd" clip-rule="evenodd" d="M306.33 34.4293C305.311 34.4293 304.485 35.255 304.485 36.2737V46.1106C304.485 47.0479 305.185 47.8219 306.09 47.9396L303.46 55.4263C303.347 55.7466 303.516 56.0976 303.836 56.2101C304.156 56.3226 304.507 56.1542 304.62 55.8338L307.473 47.713C307.494 47.6527 307.505 47.5912 307.507 47.5305C307.915 47.1922 308.174 46.6817 308.174 46.1106V36.2737C308.174 35.255 307.349 34.4293 306.33 34.4293Z" fill="#3C3737"/>
</g>
<g filter="url(#filter8_d_63_96)">
<rect x="256.531" y="60.2512" width="1.22962" height="7.3777" rx="0.614808" transform="rotate(-90 256.531 60.2512)" fill="#363636"/>
</g>
<defs>
<filter id="filter0_d_63_96" x="177.524" y="97.1397" width="46.1182" height="28.9035" filterUnits="userSpaceOnUse" color-interpolation-filters="sRGB">
<feFlood flood-opacity="0" result="BackgroundImageFix"/>
<feColorMatrix in="SourceAlpha" type="matrix" values="0 0 0 0 0 0 0 0 0 0 0 0 0 0 0 0 0 0 127 0" result="hardAlpha"/>
<feOffset dy="4"/>
<feGaussianBlur stdDeviation="2"/>
<feComposite in2="hardAlpha" operator="out"/>
<feColorMatrix type="matrix" values="0 0 0 0 0 0 0 0 0 0 0 0 0 0 0 0 0 0 0.25 0"/>
<feBlend mode="normal" in2="BackgroundImageFix" result="effect1_dropShadow_63_96"/>
<feBlend mode="normal" in="SourceGraphic" in2="effect1_dropShadow_63_96" result="shape"/>
</filter>
<filter id="filter1_d_63_96" x="190.591" y="98.3693" width="21.2146" height="22.4442" filterUnits="userSpaceOnUse" color-interpolation-filters="sRGB">
<feFlood flood-opacity="0" result="BackgroundImageFix"/>
<feColorMatrix in="SourceAlpha" type="matrix" values="0 0 0 0 0 0 0 0 0 0 0 0 0 0 0 0 0 0 127 0" result="hardAlpha"/>
<feOffset dy="2"/>
<feGaussianBlur stdDeviation="1"/>
<feComposite in2="hardAlpha" operator="out"/>
<feColorMatrix type="matrix" values="0 0 0 0 0 0 0 0 0 0 0 0 0 0 0 0 0 0 0.25 0"/>
<feBlend mode="normal" in2="BackgroundImageFix" result="effect1_dropShadow_63_96"/>
<feBlend mode="normal" in="SourceGraphic" in2="effect1_dropShadow_63_96" result="shape"/>
</filter>
<filter id="filter2_d_63_96" x="0" y="0" width="224.716" height="122.043" filterUnits="userSpaceOnUse" color-interpolation-filters="sRGB">
<feFlood flood-opacity="0" result="BackgroundImageFix"/>
<feColorMatrix in="SourceAlpha" type="matrix" values="0 0 0 0 0 0 0 0 0 0 0 0 0 0 0 0 0 0 127 0" result="hardAlpha"/>
<feOffset dy="2"/>
<feGaussianBlur stdDeviation="1"/>
<feComposite in2="hardAlpha" operator="out"/>
<feColorMatrix type="matrix" values="0 0 0 0 0 0 0 0 0 0 0 0 0 0 0 0 0 0 0.25 0"/>
<feBlend mode="normal" in2="BackgroundImageFix" result="effect1_dropShadow_63_96"/>
<feBlend mode="normal" in="SourceGraphic" in2="effect1_dropShadow_63_96" result="shape"/>
</filter>
<filter id="filter3_i_63_96" x="8.14819" y="6.14807" width="209.035" height="109.747" filterUnits="userSpaceOnUse" color-interpolation-filters="sRGB">
<feFlood flood-opacity="0" result="BackgroundImageFix"/>
<feBlend mode="normal" in="SourceGraphic" in2="BackgroundImageFix" result="shape"/>
<feColorMatrix in="SourceAlpha" type="matrix" values="0 0 0 0 0 0 0 0 0 0 0 0 0 0 0 0 0 0 127 0" result="hardAlpha"/>
<feOffset dy="4"/>
<feGaussianBlur stdDeviation="2"/>
<feComposite in2="hardAlpha" operator="arithmetic" k2="-1" k3="1"/>
<feColorMatrix type="matrix" values="0 0 0 0 0 0 0 0 0 0 0 0 0 0 0 0 0 0 0.25 0"/>
<feBlend mode="normal" in2="shape" result="effect1_innerShadow_63_96"/>
</filter>
<filter id="filter4_d_63_96" x="225.479" y="15.985" width="93.4583" height="103.91" filterUnits="userSpaceOnUse" color-interpolation-filters="sRGB">
<feFlood flood-opacity="0" result="BackgroundImageFix"/>
<feColorMatrix in="SourceAlpha" type="matrix" values="0 0 0 0 0 0 0 0 0 0 0 0 0 0 0 0 0 0 127 0" result="hardAlpha"/>
<feOffset dy="4"/>
<feGaussianBlur stdDeviation="2"/>
<feComposite in2="hardAlpha" operator="out"/>
<feColorMatrix type="matrix" values="0 0 0 0 0 0 0 0 0 0 0 0 0 0 0 0 0 0 0.25 0"/>
<feBlend mode="normal" in2="BackgroundImageFix" result="effect1_dropShadow_63_96"/>
<feBlend mode="normal" in="SourceGraphic" in2="effect1_dropShadow_63_96" result="shape"/>
</filter>
<filter id="filter5_d_63_96" x="249.453" y="20.9035" width="63.9514" height="98.9916" filterUnits="userSpaceOnUse" color-interpolation-filters="sRGB">
<feFlood flood-opacity="0" result="BackgroundImageFix"/>
<feColorMatrix in="SourceAlpha" type="matrix" values="0 0 0 0 0 0 0 0 0 0 0 0 0 0 0 0 0 0 127 0" result="hardAlpha"/>
<feOffset dy="4"/>
<feGaussianBlur stdDeviation="2"/>
<feComposite in2="hardAlpha" operator="out"/>
<feColorMatrix type="matrix" values="0 0 0 0 0 0 0 0 0 0 0 0 0 0 0 0 0 0 0.25 0"/>
<feBlend mode="normal" in2="BackgroundImageFix" result="effect1_dropShadow_63_96"/>
<feBlend mode="normal" in="SourceGraphic" in2="effect1_dropShadow_63_96" result="shape"/>
</filter>
<filter id="filter6_i_63_96" x="235.012" y="27.0516" width="66.4634" height="31.6664" filterUnits="userSpaceOnUse" color-interpolation-filters="sRGB">
<feFlood flood-opacity="0" result="BackgroundImageFix"/>
<feBlend mode="normal" in="SourceGraphic" in2="BackgroundImageFix" result="shape"/>
<feColorMatrix in="SourceAlpha" type="matrix" values="0 0 0 0 0 0 0 0 0 0 0 0 0 0 0 0 0 0 127 0" result="hardAlpha"/>
<feOffset dy="4"/>
<feGaussianBlur stdDeviation="2"/>
<feComposite in2="hardAlpha" operator="arithmetic" k2="-1" k3="1"/>
<feColorMatrix type="matrix" values="0 0 0 0 0 0 0 0 0 0 0 0 0 0 0 0 0 0 0.25 0"/>
<feBlend mode="normal" in2="shape" result="effect1_innerShadow_63_96"/>
</filter>
<filter id="filter7_d_63_96" x="299.425" y="34.4293" width="12.7495" height="29.8158" filterUnits="userSpaceOnUse" color-interpolation-filters="sRGB">
<feFlood flood-opacity="0" result="BackgroundImageFix"/>
<feColorMatrix in="SourceAlpha" type="matrix" values="0 0 0 0 0 0 0 0 0 0 0 0 0 0 0 0 0 0 127 0" result="hardAlpha"/>
<feOffset dy="4"/>
<feGaussianBlur stdDeviation="2"/>
<feComposite in2="hardAlpha" operator="out"/>
<feColorMatrix type="matrix" values="0 0 0 0 0 0 0 0 0 0 0 0 0 0 0 0 0 0 0.25 0"/>
<feBlend mode="normal" in2="BackgroundImageFix" result="effect1_dropShadow_63_96"/>
<feBlend mode="normal" in="SourceGraphic" in2="effect1_dropShadow_63_96" result="shape"/>
</filter>
<filter id="filter8_d_63_96" x="254.531" y="58.0216" width="11.3777" height="5.22961" filterUnits="userSpaceOnUse" color-interpolation-filters="sRGB">
<feFlood flood-opacity="0" result="BackgroundImageFix"/>
<feColorMatrix in="SourceAlpha" type="matrix" values="0 0 0 0 0 0 0 0 0 0 0 0 0 0 0 0 0 0 127 0" result="hardAlpha"/>
<feOffset dy="1"/>
<feGaussianBlur stdDeviation="1"/>
<feComposite in2="hardAlpha" operator="out"/>
<feColorMatrix type="matrix" values="0 0 0 0 0 0 0 0 0 0 0 0 0 0 0 0 0 0 0.25 0"/>
<feBlend mode="normal" in2="BackgroundImageFix" result="effect1_dropShadow_63_96"/>
<feBlend mode="normal" in="SourceGraphic" in2="effect1_dropShadow_63_96" result="shape"/>
</filter>
</defs>
</svg>
