<svg width="112" height="130" viewBox="0 0 112 130" fill="none" xmlns="http://www.w3.org/2000/svg">
<rect width="112" height="18" transform="matrix(1 0 0 -1 0 18)" fill="#FCF4DA"/>
<path fill-rule="evenodd" clip-rule="evenodd" d="M112 26H0V130H112V26ZM13 62.5435H51V39H13V62.5435ZM62 62.5435H100V39H62V62.5435ZM51 96H13V72.4565H51V96ZM62 96H100V72.4565H62V96Z" fill="#FCF4DA"/>
<path fill-rule="evenodd" clip-rule="evenodd" d="M112 26H0V130H112V26ZM13 62.5435H51V39H13V62.5435ZM62 62.5435H100V39H62V62.5435ZM51 96H13V72.4565H51V96ZM62 96H100V72.4565H62V96Z" fill="#FCF4DA"/>
</svg>
