<svg width="324" height="128" viewBox="0 0 324 128" fill="none" xmlns="http://www.w3.org/2000/svg">
<rect x="55.4143" y="88.3027" width="256.99" height="35.6589" rx="17.8294" fill="#363636"/>
<rect x="55.9143" y="88.8027" width="255.99" height="34.6589" rx="17.3294" stroke="#FFF3D0" stroke-opacity="0.7"/>
<g filter="url(#filter0_d_77_69)">
<rect x="184.524" y="98.1396" width="38.1181" height="20.9035" rx="10.4517" fill="#686868"/>
</g>
<g filter="url(#filter1_d_77_69)">
<rect x="195.591" y="99.3693" width="17.2146" height="18.4442" rx="8.60731" fill="#A2A2A2"/>
</g>
<g filter="url(#filter2_d_77_69)">
<path d="M43.1181 8.99251L5 59.4068V119.043H55.4143L65.866 95.0656L225.716 96.9101V1H43.1181V8.99251Z" fill="#F5A21E" stroke="#FFF3D0" stroke-opacity="0.7"/>
<g filter="url(#filter3_i_77_69)">
<path fill-rule="evenodd" clip-rule="evenodd" d="M92.015 16.3702L94.7619 10.1172V7.14807H84.1717L78.5212 16.3702H92.015ZM77.3875 7.14807L71.577 16.3702L60.3435 34.1996H32.162L49.2663 12.6813V7.14807H77.3875ZM27.2751 40.3477L11.1482 60.6364V111.865L25.4807 89.5324L56.4698 40.3477H27.2751ZM19.6357 112.895H49.4726L59.8744 89.5324H33.6935L19.6357 112.895ZM67.6098 89.5324H94.7619V27.1176L67.6098 89.5324ZM103.369 89.5324H128.576V7.14807H103.449L103.369 7.33197V89.5324ZM135.954 7.14807V89.5324H164.235V7.14807H135.954ZM172.228 7.14807V89.5324H197.435V7.14807H172.228ZM204.813 7.14807V89.5324H220.183V7.14807H204.813ZM67.7105 35.4292L75.703 21.9035H89.2288L83.6955 35.4292H67.7105ZM63.4069 42.8069L53.5699 58.7919L72.629 59.4068L80.0067 42.8069H63.4069ZM48.0367 66.7845L38.1998 83.3843H62.1773L69.555 66.7845H48.0367Z" fill="#F5A21E"/>
</g>
<path d="M94.7619 10.1172L95.2197 10.3183L95.2619 10.2222V10.1172H94.7619ZM92.015 16.3702V16.8702H92.3414L92.4728 16.5713L92.015 16.3702ZM94.7619 7.14807H95.2619V6.64807H94.7619V7.14807ZM84.1717 7.14807V6.64807H83.8917L83.7454 6.88685L84.1717 7.14807ZM78.5212 16.3702L78.0948 16.109L77.6284 16.8702H78.5212V16.3702ZM77.3875 7.14807L77.8105 7.41461L78.2935 6.64807H77.3875V7.14807ZM71.577 16.3702L72.0001 16.6367L72.0001 16.6367L71.577 16.3702ZM60.3435 34.1996V34.6996H60.6194L60.7665 34.4662L60.3435 34.1996ZM32.162 34.1996L31.7706 33.8885L31.1259 34.6996H32.162V34.1996ZM49.2663 12.6813L49.6577 12.9925L49.7663 12.8559V12.6813H49.2663ZM49.2663 7.14807V6.64807H48.7663V7.14807H49.2663ZM27.2751 40.3477V39.8477H27.0338L26.8837 40.0366L27.2751 40.3477ZM11.1482 60.6364L10.7568 60.3253L10.6482 60.4619V60.6364H11.1482ZM11.1482 111.865H10.6482V113.57L11.569 112.135L11.1482 111.865ZM25.4807 89.5324L25.9015 89.8024L25.9037 89.7989L25.4807 89.5324ZM56.4698 40.3477L56.8929 40.6142L57.3758 39.8477H56.4698V40.3477ZM19.6357 112.895L19.2073 112.637L18.7513 113.395H19.6357V112.895ZM49.4726 112.895V113.395H49.7974L49.9294 113.098L49.4726 112.895ZM59.8744 89.5324L60.3311 89.7357L60.6443 89.0324H59.8744V89.5324ZM33.6935 89.5324V89.0324H33.4108L33.2651 89.2746L33.6935 89.5324ZM67.6098 89.5324L67.1513 89.3329L66.847 90.0324H67.6098V89.5324ZM94.7619 89.5324V90.0324H95.2619V89.5324H94.7619ZM94.7619 27.1176H95.2619L94.3035 26.9182L94.7619 27.1176ZM103.369 89.5324H102.869V90.0324H103.369V89.5324ZM128.576 89.5324V90.0324H129.076V89.5324H128.576ZM128.576 7.14807H129.076V6.64807H128.576V7.14807ZM103.449 7.14807V6.64807H103.122L102.991 6.94861L103.449 7.14807ZM103.369 7.33197L102.911 7.13251L102.869 7.22792V7.33197H103.369ZM135.954 89.5324H135.454V90.0324H135.954V89.5324ZM135.954 7.14807V6.64807H135.454V7.14807H135.954ZM164.235 89.5324V90.0324H164.735V89.5324H164.235ZM164.235 7.14807H164.735V6.64807H164.235V7.14807ZM172.228 89.5324H171.728V90.0324H172.228V89.5324ZM172.228 7.14807V6.64807H171.728V7.14807H172.228ZM197.435 89.5324V90.0324H197.935V89.5324H197.435ZM197.435 7.14807H197.935V6.64807H197.435V7.14807ZM204.813 89.5324H204.313V90.0324H204.813V89.5324ZM204.813 7.14807V6.64807H204.313V7.14807H204.813ZM220.183 89.5324V90.0324H220.683V89.5324H220.183ZM220.183 7.14807H220.683V6.64807H220.183V7.14807ZM75.703 21.9035V21.4035H75.4177L75.2726 21.6491L75.703 21.9035ZM67.7105 35.4292L67.2801 35.1749L66.8343 35.9292H67.7105V35.4292ZM89.2288 21.9035L89.6916 22.0928L89.9736 21.4035H89.2288V21.9035ZM83.6955 35.4292V35.9292H84.0312L84.1583 35.6186L83.6955 35.4292ZM53.5699 58.7919L53.1441 58.5299L52.6924 59.2639L53.5538 59.2917L53.5699 58.7919ZM63.4069 42.8069V42.3069H63.1275L62.981 42.5449L63.4069 42.8069ZM72.629 59.4068L72.6129 59.9065L72.9492 59.9173L73.0859 59.6098L72.629 59.4068ZM80.0067 42.8069L80.4636 43.01L80.7761 42.3069H80.0067V42.8069ZM38.1998 83.3843L37.7696 83.1294L37.3223 83.8843H38.1998V83.3843ZM48.0367 66.7845V66.2845H47.7518L47.6066 66.5295L48.0367 66.7845ZM62.1773 83.3843V83.8843H62.5022L62.6342 83.5873L62.1773 83.3843ZM69.555 66.7845L70.0119 66.9875L70.3244 66.2845H69.555V66.7845ZM94.3042 9.91611L91.5572 16.1691L92.4728 16.5713L95.2197 10.3183L94.3042 9.91611ZM94.2619 7.14807V10.1172H95.2619V7.14807H94.2619ZM94.7619 6.64807H84.1717V7.64807H94.7619V6.64807ZM78.9475 16.6314L84.5981 7.40929L83.7454 6.88685L78.0948 16.109L78.9475 16.6314ZM92.015 15.8702H78.5212V16.8702H92.015V15.8702ZM76.9645 6.88154L71.154 16.1037L72.0001 16.6367L77.8105 7.41461L76.9645 6.88154ZM71.154 16.1037L59.9204 33.9331L60.7665 34.4662L72.0001 16.6367L71.154 16.1037ZM60.3435 33.6996H32.162V34.6996H60.3435V33.6996ZM48.8749 12.3702L31.7706 33.8885L32.5534 34.5107L49.6577 12.9925L48.8749 12.3702ZM48.7663 7.14807V12.6813H49.7663V7.14807H48.7663ZM77.3875 6.64807H49.2663V7.64807H77.3875V6.64807ZM26.8837 40.0366L10.7568 60.3253L11.5396 60.9475L27.6665 40.6588L26.8837 40.0366ZM10.6482 60.6364V111.865H11.6482V60.6364H10.6482ZM25.0599 89.2623L10.7274 111.595L11.569 112.135L25.9015 89.8024L25.0599 89.2623ZM56.0468 40.0812L25.0576 89.2658L25.9037 89.7989L56.8929 40.6142L56.0468 40.0812ZM27.2751 40.8477H56.4698V39.8477H27.2751V40.8477ZM19.6357 113.395H49.4726V112.395H19.6357V113.395ZM59.4176 89.329L49.0159 112.692L49.9294 113.098L60.3311 89.7357L59.4176 89.329ZM33.6935 90.0324H59.8744V89.0324H33.6935V90.0324ZM20.0641 113.153L34.1219 89.7901L33.2651 89.2746L19.2073 112.637L20.0641 113.153ZM67.6098 90.0324H94.7619V89.0324H67.6098V90.0324ZM94.2619 27.1176V89.5324H95.2619V27.1176H94.2619ZM68.0683 89.7318L95.2204 27.3171L94.3035 26.9182L67.1513 89.3329L68.0683 89.7318ZM103.369 90.0324H128.576V89.0324H103.369V90.0324ZM128.076 7.14807V89.5324H129.076V7.14807H128.076ZM128.576 6.64807H103.449V7.64807H128.576V6.64807ZM103.828 7.53143L103.908 7.34753L102.991 6.94861L102.911 7.13251L103.828 7.53143ZM103.869 89.5324V7.33197H102.869V89.5324H103.869ZM136.454 89.5324V7.14807H135.454V89.5324H136.454ZM135.954 90.0324H164.235V89.0324H135.954V90.0324ZM163.735 7.14807V89.5324H164.735V7.14807H163.735ZM164.235 6.64807H135.954V7.64807H164.235V6.64807ZM172.728 89.5324V7.14807H171.728V89.5324H172.728ZM172.228 90.0324H197.435V89.0324H172.228V90.0324ZM196.935 7.14807V89.5324H197.935V7.14807H196.935ZM197.435 6.64807H172.228V7.64807H197.435V6.64807ZM205.313 89.5324V7.14807H204.313V89.5324H205.313ZM204.813 90.0324H220.183V89.0324H204.813V90.0324ZM220.683 89.5324V7.14807H219.683V89.5324H220.683ZM220.183 6.64807H204.813V7.64807H220.183V6.64807ZM75.2726 21.6491L67.2801 35.1749L68.141 35.6836L76.1335 22.1578L75.2726 21.6491ZM89.2288 21.4035H75.703V22.4035H89.2288V21.4035ZM84.1583 35.6186L89.6916 22.0928L88.766 21.7141L83.2328 35.2399L84.1583 35.6186ZM67.7105 35.9292H83.6955V34.9292H67.7105V35.9292ZM53.9958 59.054L63.8327 43.069L62.981 42.5449L53.1441 58.5299L53.9958 59.054ZM72.6451 58.907L53.5861 58.2922L53.5538 59.2917L72.6129 59.9065L72.6451 58.907ZM79.5498 42.6039L72.1721 59.2037L73.0859 59.6098L80.4636 43.01L79.5498 42.6039ZM63.4069 43.3069H80.0067V42.3069H63.4069V43.3069ZM38.6299 83.6392L48.4669 67.0394L47.6066 66.5295L37.7696 83.1294L38.6299 83.6392ZM62.1773 82.8843H38.1998V83.8843H62.1773V82.8843ZM69.0981 66.5814L61.7204 83.1812L62.6342 83.5873L70.0119 66.9875L69.0981 66.5814ZM48.0367 67.2845H69.555V66.2845H48.0367V67.2845Z" fill="#FFF3D0" fill-opacity="0.7"/>
</g>
<g filter="url(#filter4_d_77_69)">
<path d="M292.924 16.985H235.479C233.822 16.985 232.479 18.3281 232.479 19.985V82.7757C232.479 84.4325 233.822 85.7757 235.479 85.7757H258.112C279.557 85.7757 287.434 97.6511 288.5 109.899C288.644 111.549 289.972 112.895 291.628 112.895H314.937C316.594 112.895 317.937 111.552 317.937 109.895V54.7436C317.937 54.1752 317.776 53.6186 317.472 53.1384L295.458 18.3798C294.908 17.5114 293.952 16.985 292.924 16.985Z" fill="#BCBCBC"/>
<path d="M292.924 16.985H235.479C233.822 16.985 232.479 18.3281 232.479 19.985V82.7757C232.479 84.4325 233.822 85.7757 235.479 85.7757H258.112C279.557 85.7757 287.434 97.6511 288.5 109.899C288.644 111.549 289.972 112.895 291.628 112.895H314.937C316.594 112.895 317.937 111.552 317.937 109.895V54.7436C317.937 54.1752 317.776 53.6186 317.472 53.1384L295.458 18.3798C294.908 17.5114 293.952 16.985 292.924 16.985Z" stroke="#FFF3D0"/>
</g>
<path d="M313.168 63.1756C313.686 61.1042 316.404 60.5864 317.699 60.5864V67.7066C315.973 67.0593 312.65 65.2469 313.168 63.1756Z" fill="#FFF3D0"/>
<g filter="url(#filter5_d_77_69)">
<path d="M288.89 21.9034H259.453C257.796 21.9034 256.453 23.2466 256.453 24.9034L256.453 84.1664C256.453 85.8232 257.804 87.1563 259.458 87.2531C277.575 88.3133 287.986 98.9317 289.592 109.906C289.832 111.546 291.154 112.895 292.811 112.895H309.404C311.061 112.895 312.404 111.552 312.404 109.895V57.7598C312.404 57.1981 312.246 56.6476 311.949 56.171L291.435 23.3146C290.887 22.4368 289.925 21.9034 288.89 21.9034Z" fill="#BCBCBC"/>
</g>
<path d="M265.064 84.0079H230.681C228.951 84.0079 227.561 85.4101 227.561 87.1399C227.561 88.8697 228.963 90.272 230.693 90.272H263.834C277.69 90.272 285.487 103.035 287.687 112.265C288.327 114.951 290.577 117.208 293.339 117.208H320.089C321.957 117.208 323.471 115.694 323.471 113.826C323.471 111.959 321.957 110.445 320.089 110.445L297.115 110.445C294.354 110.445 292.119 108.176 291.391 105.513C288.758 95.8919 279.113 84.0079 265.064 84.0079Z" fill="#7B7B7B"/>
<path d="M263.834 90.272C277.69 90.272 285.487 103.035 287.687 112.265C288.327 114.951 290.577 117.208 293.339 117.208H320.089C321.957 117.208 323.471 115.694 323.471 113.826V113.826C323.471 111.959 321.957 110.445 320.089 110.445L297.115 110.445C294.354 110.445 292.119 108.176 291.391 105.513C288.758 95.8919 279.113 84.0079 265.064 84.0079C265.064 84.0079 265.064 84.0079 265.064 84.0079C265.064 84.0079 240.759 84.0079 230.681 84.0079C228.951 84.0079 227.561 85.4101 227.561 87.1399V87.1399C227.561 88.8697 228.963 90.272 230.693 90.272H263.834Z" stroke="#FFF3D0" stroke-opacity="0.7"/>
<g filter="url(#filter6_i_77_69)">
<path d="M259.53 52.7179V31.0515C259.53 29.3947 260.874 28.0515 262.53 28.0515H287.989C289.026 28.0515 289.989 28.5866 290.537 29.4666L304.018 51.133C305.261 53.1313 303.824 55.7179 301.471 55.7179H262.53C260.874 55.7179 259.53 54.3747 259.53 52.7179Z" fill="#D9D9D9"/>
<path d="M241.012 28.0515H248.538C250.195 28.0515 251.538 29.3947 251.538 31.0515V52.7179C251.538 54.3747 250.195 55.7179 248.538 55.7179H241.012C239.355 55.7179 238.012 54.3747 238.012 52.7179V31.0515C238.012 29.3947 239.355 28.0515 241.012 28.0515Z" fill="#D9D9D9"/>
</g>
<g filter="url(#filter7_d_77_69)">
<mask id="path-14-inside-1_77_69" fill="white">
<path fill-rule="evenodd" clip-rule="evenodd" d="M309.33 35.4292C308.311 35.4292 307.485 36.255 307.485 37.2736V47.1106C307.485 48.0478 308.185 48.8218 309.09 48.9395L306.46 56.4262C306.347 56.7466 306.516 57.0975 306.836 57.21C307.156 57.3226 307.507 57.1541 307.62 56.8338L310.473 48.713C310.494 48.6526 310.505 48.5912 310.507 48.5304C310.915 48.1921 311.174 47.6816 311.174 47.1106V37.2736C311.174 36.255 310.349 35.4292 309.33 35.4292Z"/>
</mask>
<path fill-rule="evenodd" clip-rule="evenodd" d="M309.33 35.4292C308.311 35.4292 307.485 36.255 307.485 37.2736V47.1106C307.485 48.0478 308.185 48.8218 309.09 48.9395L306.46 56.4262C306.347 56.7466 306.516 57.0975 306.836 57.21C307.156 57.3226 307.507 57.1541 307.62 56.8338L310.473 48.713C310.494 48.6526 310.505 48.5912 310.507 48.5304C310.915 48.1921 311.174 47.6816 311.174 47.1106V37.2736C311.174 36.255 310.349 35.4292 309.33 35.4292Z" fill="#3C3737"/>
<path d="M309.09 48.9395L310.033 49.2709L310.442 48.1069L309.219 47.9478L309.09 48.9395ZM306.46 56.4262L307.403 56.7577L307.403 56.7577L306.46 56.4262ZM307.62 56.8338L308.563 57.1652L308.563 57.1652L307.62 56.8338ZM310.473 48.713L311.416 49.0444L311.416 49.0444L310.473 48.713ZM310.507 48.5304L309.868 47.761L309.523 48.0474L309.508 48.4956L310.507 48.5304ZM308.485 37.2736C308.485 36.8073 308.864 36.4292 309.33 36.4292V34.4292C307.759 34.4292 306.485 35.7027 306.485 37.2736H308.485ZM308.485 47.1106V37.2736H306.485V47.1106H308.485ZM309.219 47.9478C308.805 47.8941 308.485 47.5389 308.485 47.1106H306.485C306.485 48.5568 307.564 49.7495 308.961 49.9311L309.219 47.9478ZM307.403 56.7577L310.033 49.2709L308.146 48.6081L305.516 56.0948L307.403 56.7577ZM307.167 56.2666C307.368 56.3371 307.474 56.5569 307.403 56.7577L305.516 56.0948C305.221 56.9362 305.663 57.8579 306.505 58.1535L307.167 56.2666ZM306.676 56.5023C306.747 56.3016 306.967 56.1961 307.167 56.2666L306.505 58.1535C307.346 58.4491 308.268 58.0066 308.563 57.1652L306.676 56.5023ZM309.529 48.3815L306.676 56.5023L308.563 57.1652L311.416 49.0444L309.529 48.3815ZM309.508 48.4956C309.509 48.4564 309.516 48.4178 309.529 48.3815L311.416 49.0444C311.471 48.8874 311.501 48.7259 311.507 48.5653L309.508 48.4956ZM310.174 47.1106C310.174 47.3717 310.057 47.6045 309.868 47.761L311.146 49.2999C311.773 48.7797 312.174 47.9916 312.174 47.1106H310.174ZM310.174 37.2736V47.1106H312.174V37.2736H310.174ZM309.33 36.4292C309.796 36.4292 310.174 36.8073 310.174 37.2736H312.174C312.174 35.7027 310.901 34.4292 309.33 34.4292V36.4292Z" fill="#FFF3D0" mask="url(#path-14-inside-1_77_69)"/>
</g>
<g filter="url(#filter8_d_77_69)">
<rect x="259.531" y="61.2512" width="1.22962" height="7.3777" rx="0.614808" transform="rotate(-90 259.531 61.2512)" fill="#363636"/>
</g>
<defs>
<filter id="filter0_d_77_69" x="180.524" y="98.1396" width="46.1182" height="28.9035" filterUnits="userSpaceOnUse" color-interpolation-filters="sRGB">
<feFlood flood-opacity="0" result="BackgroundImageFix"/>
<feColorMatrix in="SourceAlpha" type="matrix" values="0 0 0 0 0 0 0 0 0 0 0 0 0 0 0 0 0 0 127 0" result="hardAlpha"/>
<feOffset dy="4"/>
<feGaussianBlur stdDeviation="2"/>
<feComposite in2="hardAlpha" operator="out"/>
<feColorMatrix type="matrix" values="0 0 0 0 0 0 0 0 0 0 0 0 0 0 0 0 0 0 0.25 0"/>
<feBlend mode="normal" in2="BackgroundImageFix" result="effect1_dropShadow_77_69"/>
<feBlend mode="normal" in="SourceGraphic" in2="effect1_dropShadow_77_69" result="shape"/>
</filter>
<filter id="filter1_d_77_69" x="193.591" y="99.3693" width="21.2146" height="22.4442" filterUnits="userSpaceOnUse" color-interpolation-filters="sRGB">
<feFlood flood-opacity="0" result="BackgroundImageFix"/>
<feColorMatrix in="SourceAlpha" type="matrix" values="0 0 0 0 0 0 0 0 0 0 0 0 0 0 0 0 0 0 127 0" result="hardAlpha"/>
<feOffset dy="2"/>
<feGaussianBlur stdDeviation="1"/>
<feComposite in2="hardAlpha" operator="out"/>
<feColorMatrix type="matrix" values="0 0 0 0 0 0 0 0 0 0 0 0 0 0 0 0 0 0 0.25 0"/>
<feBlend mode="normal" in2="BackgroundImageFix" result="effect1_dropShadow_77_69"/>
<feBlend mode="normal" in="SourceGraphic" in2="effect1_dropShadow_77_69" result="shape"/>
</filter>
<filter id="filter2_d_77_69" x="0.5" y="0.5" width="229.716" height="127.043" filterUnits="userSpaceOnUse" color-interpolation-filters="sRGB">
<feFlood flood-opacity="0" result="BackgroundImageFix"/>
<feColorMatrix in="SourceAlpha" type="matrix" values="0 0 0 0 0 0 0 0 0 0 0 0 0 0 0 0 0 0 127 0" result="hardAlpha"/>
<feOffset dy="4"/>
<feGaussianBlur stdDeviation="2"/>
<feComposite in2="hardAlpha" operator="out"/>
<feColorMatrix type="matrix" values="0 0 0 0 0 0 0 0 0 0 0 0 0 0 0 0 0 0 0.25 0"/>
<feBlend mode="normal" in2="BackgroundImageFix" result="effect1_dropShadow_77_69"/>
<feBlend mode="normal" in="SourceGraphic" in2="effect1_dropShadow_77_69" result="shape"/>
</filter>
<filter id="filter3_i_77_69" x="10.6482" y="6.64807" width="210.035" height="110.922" filterUnits="userSpaceOnUse" color-interpolation-filters="sRGB">
<feFlood flood-opacity="0" result="BackgroundImageFix"/>
<feBlend mode="normal" in="SourceGraphic" in2="BackgroundImageFix" result="shape"/>
<feColorMatrix in="SourceAlpha" type="matrix" values="0 0 0 0 0 0 0 0 0 0 0 0 0 0 0 0 0 0 127 0" result="hardAlpha"/>
<feOffset dy="4"/>
<feGaussianBlur stdDeviation="2"/>
<feComposite in2="hardAlpha" operator="arithmetic" k2="-1" k3="1"/>
<feColorMatrix type="matrix" values="0 0 0 0 0 0 0 0 0 0 0 0 0 0 0 0 0 0 0.25 0"/>
<feBlend mode="normal" in2="shape" result="effect1_innerShadow_77_69"/>
</filter>
<filter id="filter4_d_77_69" x="227.979" y="16.485" width="94.4584" height="104.91" filterUnits="userSpaceOnUse" color-interpolation-filters="sRGB">
<feFlood flood-opacity="0" result="BackgroundImageFix"/>
<feColorMatrix in="SourceAlpha" type="matrix" values="0 0 0 0 0 0 0 0 0 0 0 0 0 0 0 0 0 0 127 0" result="hardAlpha"/>
<feOffset dy="4"/>
<feGaussianBlur stdDeviation="2"/>
<feComposite in2="hardAlpha" operator="out"/>
<feColorMatrix type="matrix" values="0 0 0 0 0 0 0 0 0 0 0 0 0 0 0 0 0 0 0.25 0"/>
<feBlend mode="normal" in2="BackgroundImageFix" result="effect1_dropShadow_77_69"/>
<feBlend mode="normal" in="SourceGraphic" in2="effect1_dropShadow_77_69" result="shape"/>
</filter>
<filter id="filter5_d_77_69" x="252.453" y="21.9034" width="63.9513" height="98.9916" filterUnits="userSpaceOnUse" color-interpolation-filters="sRGB">
<feFlood flood-opacity="0" result="BackgroundImageFix"/>
<feColorMatrix in="SourceAlpha" type="matrix" values="0 0 0 0 0 0 0 0 0 0 0 0 0 0 0 0 0 0 127 0" result="hardAlpha"/>
<feOffset dy="4"/>
<feGaussianBlur stdDeviation="2"/>
<feComposite in2="hardAlpha" operator="out"/>
<feColorMatrix type="matrix" values="0 0 0 0 0 0 0 0 0 0 0 0 0 0 0 0 0 0 0.25 0"/>
<feBlend mode="normal" in2="BackgroundImageFix" result="effect1_dropShadow_77_69"/>
<feBlend mode="normal" in="SourceGraphic" in2="effect1_dropShadow_77_69" result="shape"/>
</filter>
<filter id="filter6_i_77_69" x="238.012" y="28.0515" width="66.4633" height="31.6664" filterUnits="userSpaceOnUse" color-interpolation-filters="sRGB">
<feFlood flood-opacity="0" result="BackgroundImageFix"/>
<feBlend mode="normal" in="SourceGraphic" in2="BackgroundImageFix" result="shape"/>
<feColorMatrix in="SourceAlpha" type="matrix" values="0 0 0 0 0 0 0 0 0 0 0 0 0 0 0 0 0 0 127 0" result="hardAlpha"/>
<feOffset dy="4"/>
<feGaussianBlur stdDeviation="2"/>
<feComposite in2="hardAlpha" operator="arithmetic" k2="-1" k3="1"/>
<feColorMatrix type="matrix" values="0 0 0 0 0 0 0 0 0 0 0 0 0 0 0 0 0 0 0.25 0"/>
<feBlend mode="normal" in2="shape" result="effect1_innerShadow_77_69"/>
</filter>
<filter id="filter7_d_77_69" x="302.425" y="35.4292" width="12.7495" height="29.8158" filterUnits="userSpaceOnUse" color-interpolation-filters="sRGB">
<feFlood flood-opacity="0" result="BackgroundImageFix"/>
<feColorMatrix in="SourceAlpha" type="matrix" values="0 0 0 0 0 0 0 0 0 0 0 0 0 0 0 0 0 0 127 0" result="hardAlpha"/>
<feOffset dy="4"/>
<feGaussianBlur stdDeviation="2"/>
<feComposite in2="hardAlpha" operator="out"/>
<feColorMatrix type="matrix" values="0 0 0 0 0 0 0 0 0 0 0 0 0 0 0 0 0 0 0.25 0"/>
<feBlend mode="normal" in2="BackgroundImageFix" result="effect1_dropShadow_77_69"/>
<feBlend mode="normal" in="SourceGraphic" in2="effect1_dropShadow_77_69" result="shape"/>
</filter>
<filter id="filter8_d_77_69" x="257.531" y="59.0215" width="11.3777" height="5.22961" filterUnits="userSpaceOnUse" color-interpolation-filters="sRGB">
<feFlood flood-opacity="0" result="BackgroundImageFix"/>
<feColorMatrix in="SourceAlpha" type="matrix" values="0 0 0 0 0 0 0 0 0 0 0 0 0 0 0 0 0 0 127 0" result="hardAlpha"/>
<feOffset dy="1"/>
<feGaussianBlur stdDeviation="1"/>
<feComposite in2="hardAlpha" operator="out"/>
<feColorMatrix type="matrix" values="0 0 0 0 0 0 0 0 0 0 0 0 0 0 0 0 0 0 0.25 0"/>
<feBlend mode="normal" in2="BackgroundImageFix" result="effect1_dropShadow_77_69"/>
<feBlend mode="normal" in="SourceGraphic" in2="effect1_dropShadow_77_69" result="shape"/>
</filter>
</defs>
</svg>
